<svg xmlns="http://www.w3.org/2000/svg" viewBox="0 0 64 64" width="64" height="64">
  <defs>
    <linearGradient id="tqFavGrad" x1="0%" y1="0%" x2="100%" y2="100%">
      <stop offset="0%" stop-color="#ffffff" />
      <stop offset="50%" stop-color="#38bdf8" />
      <stop offset="100%" stop-color="#818cf8" />
    </linearGradient>
  </defs>
  <rect width="64" height="64" rx="16" fill="#030712" />
  <rect x="1" y="1" width="62" height="62" rx="15" fill="none" stroke="#ffffff" stroke-opacity="0.2" stroke-width="1.5" />
  <!-- TQ Monogram Icon -->
  <g transform="translate(7, 12)">
    <path d="M 2 4 H 22 V 9 H 14.5 V 34 H 9.5 V 9 H 2 Z" fill="url(#tqFavGrad)" />
    <path d="M 22 18 C 22 10 28 4 36 4 C 44 4 50 10 50 18 C 50 25 45 30 38 32 L 45 37 H 38 L 33 32.5 C 31 33 29 33 27 33 C 22 33 22 26 22 18 Z M 27.5 18 C 27.5 24 31 27.5 36 27.5 C 41 27.5 44.5 24 44.5 18 C 44.5 12 41 8.5 36 8.5 C 31 8.5 27.5 12 27.5 18 Z" fill="url(#tqFavGrad)" />
  </g>
</svg>
